<svg width="60" height="47" viewBox="0 0 60 47" fill="none" xmlns="http://www.w3.org/2000/svg">
<ellipse cx="30" cy="24.6553" rx="8" ry="7.88531" fill="#1D1D1D"/>
<rect width="5.95715" height="59.5715" transform="matrix(0.712193 0.701983 -0.712193 0.701983 48.3848 0.958366)" fill="#1D1D1D"/>
<path fill-rule="evenodd" clip-rule="evenodd" d="M42.8876 12.3728C38.983 10.879 34.6131 9.87037 30 9.87037C13.4315 9.87037 0 22.8811 0 24.6553C0 25.9615 7.27938 33.3574 17.7308 37.1689L20.9233 34.0222C17.1928 32.8799 13.7936 31.1684 10.943 29.344C8.44306 27.7441 6.45759 26.1155 5.13937 24.8397C5.07445 24.7769 5.01168 24.7154 4.95103 24.6553C5.01168 24.5953 5.07445 24.5338 5.13937 24.471C6.45759 23.1951 8.44306 21.5666 10.943 19.9666C15.9813 16.7421 22.7333 13.8704 30 13.8704C33.3937 13.8704 36.6751 14.4967 39.7222 15.4928L42.8876 12.3728ZM28.0396 35.3715C28.6883 35.4168 29.342 35.4403 30 35.4403C37.2667 35.4403 44.0187 32.5685 49.057 29.344C51.5569 27.7441 53.5424 26.1155 54.8606 24.8397C54.9255 24.7769 54.9883 24.7154 55.049 24.6553C54.9883 24.5953 54.9255 24.5338 54.8606 24.471C53.5424 23.1951 51.5569 21.5666 49.057 19.9666C47.9973 19.2884 46.8617 18.6258 45.6616 18.0022L48.6428 15.0637C55.5627 18.9036 60 23.6356 60 24.6553C60 26.4295 46.5686 39.4403 30 39.4403C28.0868 39.4403 26.2155 39.2668 24.4018 38.9572L28.0396 35.3715Z" fill="#1D1D1D"/>
</svg>
