<svg width="60" height="30" viewBox="0 0 60 30" fill="none" xmlns="http://www.w3.org/2000/svg">
<path d="M58.0932 14.4947C58.094 14.4943 58.0899 14.505 58.0783 14.5277C58.0866 14.5064 58.0924 14.4951 58.0932 14.4947ZM56.2412 13.3239C56.933 14.0032 57.4389 14.5756 57.7613 15C57.4389 15.4244 56.933 15.9968 56.2412 16.6761C54.8224 18.0692 52.731 19.8049 50.1241 21.4976C44.89 24.896 37.7679 28 30 28C22.2321 28 15.11 24.896 9.87595 21.4976C7.26896 19.8049 5.17759 18.0692 3.7588 16.6761C3.06702 15.9968 2.56111 15.4244 2.23868 15C2.56111 14.5756 3.06702 14.0032 3.7588 13.3239C5.17759 11.9308 7.26896 10.1951 9.87595 8.50243C15.11 5.10397 22.2321 2 30 2C37.7679 2 44.89 5.10397 50.1241 8.50243C52.731 10.1951 54.8224 11.9308 56.2412 13.3239ZM1.90681 14.4947C1.90762 14.495 1.9134 14.5064 1.92172 14.5277C1.91016 14.505 1.906 14.4944 1.90681 14.4947ZM1.90681 15.5053C1.906 15.5056 1.91016 15.495 1.92172 15.4723C1.9134 15.4936 1.90762 15.505 1.90681 15.5053ZM58.0783 15.4723C58.0899 15.495 58.094 15.5056 58.0932 15.5053C58.0924 15.5049 58.0866 15.4936 58.0783 15.4723Z" stroke="#1D1D1D" stroke-width="4"/>
<ellipse cx="30" cy="15" rx="8" ry="8" fill="#1D1D1D"/>
</svg>
